<svg fill="none" version="1.1" viewBox="0 0 171 67" xmlns="http://www.w3.org/2000/svg">
		<path d="m0 0h168.5c1.381 0 2.5 1.1193 2.5 2.5s-1.119 2.5-2.5 2.5h-168.5z" fill="url(#paint0_linear_915_143)" style="fill:url(#paint0_linear_915_143)"/>
		<path d="m131 15.5h37.5c1.381 0 2.5 1.1193 2.5 2.5s-1.119 2.5-2.5 2.5h-37.5z" fill="url(#paint1_linear_915_143)" style="fill:url(#paint1_linear_915_143)"/>
		<path d="m77 31h91.5c1.381 0 2.5 1.1193 2.5 2.5s-1.119 2.5-2.5 2.5h-91.5z" fill="url(#paint2_linear_915_143)" style="fill:url(#paint2_linear_915_143)"/>
		<path d="m113 46.5h55.5c1.381 0 2.5 1.1193 2.5 2.5s-1.119 2.5-2.5 2.5h-55.5z" fill="url(#paint3_linear_915_143)" style="fill:url(#paint3_linear_915_143)"/>
		<path d="m40 62h128.5c1.381 0 2.5 1.1193 2.5 2.5s-1.119 2.5-2.5 2.5h-128.5z" fill="url(#paint4_linear_915_143)" style="fill:url(#paint4_linear_915_143)"/>
		<defs>
				<linearGradient id="paint0_linear_915_143" x2="171" y1="26.5" y2="26.5" gradientUnits="userSpaceOnUse">
						<stop stop-color="#2D6EBE" stop-opacity="0" offset="0"/>
						<stop stop-color="#2D6EBE" stop-opacity=".85" offset=".85"/>
						<stop stop-color="#2D6EBE" stop-opacity=".05" offset="1"/>
				</linearGradient>
				<linearGradient id="paint1_linear_915_143" x1="131" x2="171" y1="42" y2="42" gradientUnits="userSpaceOnUse">
						<stop stop-color="#2D6EBE" stop-opacity="0" offset="0"/>
						<stop stop-color="#2D6EBE" stop-opacity=".85" offset=".85"/>
						<stop stop-color="#2D6EBE" stop-opacity=".05" offset="1"/>
				</linearGradient>
				<linearGradient id="paint2_linear_915_143" x1="77" x2="171" y1="57.5" y2="57.5" gradientUnits="userSpaceOnUse">
						<stop stop-color="#C425C6" stop-opacity="0" offset="0"/>
						<stop stop-color="#C425C6" stop-opacity=".85" offset=".7"/>
						<stop stop-color="#C425C6" stop-opacity=".05" offset="1"/>
				</linearGradient>
				<linearGradient id="paint3_linear_915_143" x1="113" x2="171" y1="73" y2="73" gradientUnits="userSpaceOnUse">
						<stop stop-color="#2D6EBE" stop-opacity="0" offset="0"/>
						<stop stop-color="#2D6EBE" stop-opacity=".85" offset=".85"/>
						<stop stop-color="#2D6EBE" stop-opacity=".05" offset="1"/>
				</linearGradient>
				<linearGradient id="paint4_linear_915_143" x1="40" x2="171" y1="88.5" y2="88.5" gradientUnits="userSpaceOnUse">
						<stop stop-color="#C425C6" stop-opacity="0" offset="0"/>
						<stop stop-color="#C425C6" stop-opacity=".85" offset=".7"/>
						<stop stop-color="#C425C6" stop-opacity=".05" offset="1"/>
				</linearGradient>
		</defs>
</svg>
