<svg width="32" height="32"  fill="none" aria-hidden="true" focusable="false" version="1.1" viewBox="0 0 32 32" xmlns="http://www.w3.org/2000/svg">
  <style>
    #logomark-a {
      fill: hsl(0, 0%, 16%);
    }
    #logomark-m {
      fill: hsl(209, 69%, 46%);
    }

  @media (prefers-color-scheme: dark) {
    #logomark-a {
      fill: hsl(0, 0%, 100%);
    }
  }
</style>
	<g>
		<path id="logomark-a" d="m15.152 2.6307c0.3504-0.84095 1.5417-0.84095 1.8921 0l6.1889 14.853-2.8382 1.1826-1.4585-3.5004c-1.0512-2.5229-4.6252-2.5229-5.6764 0l-1.4585 3.5004-2.8382-1.1826 6.1888-14.853z"/>
		<path id="logomark-m" d="m10.197 14.446c0.2162-0.4554 0.8407-0.5143 1.1381-0.1072l0.6255 0.8562c2.0471 2.8019 6.2286 2.8019 8.2757 0l0.626-0.8568c0.2972-0.4068 0.9213-0.348 1.1373 0.1071l6.0332 12.71c0.6366 1.3412-0.3657 2.8822-1.8498 2.8441-0.4535-0.0117-0.8551-0.2958-1.0172-0.7195l-1.6183-4.2307c-1.1028-2.8829-5.0019-3.3186-6.7248-0.7576-0.3455 0.5135-1.102 0.5149-1.4475 0.0014-1.7161-2.5509-5.5983-2.0925-6.673 0.7881l-1.5562 4.171c-0.1641 0.4398-0.57912 0.7357-1.0484 0.7474-1.523 0.0381-2.5508-1.5434-1.8975-2.9197l5.997-12.634z"/>
	</g>
</svg>

