<svg width="256" height="256" viewBox="0 0 256 256" fill="none" xmlns="http://www.w3.org/2000/svg">
<rect width="256" height="256" rx="24" fill="white"/>
<path fill-rule="evenodd" clip-rule="evenodd" d="M120.22 21.0457C123.023 14.3181 132.554 14.3181 135.357 21.0457L184.868 139.872L162.162 149.332L150.494 121.329C142.085 101.146 113.493 101.146 105.083 121.329L93.4149 149.332L70.7094 139.872L120.22 21.0457Z" fill="black"/>
<path fill-rule="evenodd" clip-rule="evenodd" d="M80.577 115.565C82.3064 111.921 87.3024 111.451 89.6817 114.707L94.686 121.557C111.063 143.972 144.515 143.972 160.891 121.557L165.9 114.702C168.277 111.448 173.269 111.918 174.998 115.559L223.263 217.241C228.356 227.97 220.338 240.298 208.465 239.993C204.837 239.9 201.624 237.627 200.327 234.238L187.381 200.392C178.558 177.329 147.366 173.843 133.582 194.331C130.818 198.439 124.766 198.45 122.003 194.342C108.273 173.935 77.2159 177.603 68.6181 200.647L56.1685 234.015C54.8557 237.534 51.5355 239.901 47.7811 239.995C35.5975 240.299 27.3749 227.647 32.6011 216.637L80.577 115.565Z" fill="url(#paint0_linear_527_82)"/>
<defs>
<linearGradient id="paint0_linear_527_82" x1="127.789" y1="113.571" x2="127.789" y2="240.659" gradientUnits="userSpaceOnUse">
<stop stop-color="#1573E1"/>
<stop offset="1" stop-color="#071B2E"/>
</linearGradient>
</defs>
</svg>
