<svg width="1182" height="1121" viewBox="0 0 1182 1121" fill="none" xmlns="http://www.w3.org/2000/svg">
<path d="M-158.885 1519.44L-172.057 526.239M-158.885 1519.44L-46.0249 346.308M-158.885 1519.44L129.735 320.076M-158.885 1519.44L531.625 128.282M-158.885 1519.44L318.968 251.844M-158.885 1519.44L7.72903 585.732M-158.885 1519.44L234.229 941.992M-158.885 1519.44L1038.35 13.8038M-158.885 1519.44L696.259 632.855M-158.885 1519.44L1066.97 576.511M-158.885 1519.44L346.584 1296.71M-158.885 1519.44L1167.93 990.115M-158.885 1519.44L599.048 1119.83M-158.885 1519.44L407.407 1139.95" stroke="url(#paint0_linear_724_760)" stroke-opacity="0.75" stroke-width="5"/>
<defs>
<linearGradient id="paint0_linear_724_760" x1="-156.838" y1="1519.69" x2="-32.1173" y2="503.925" gradientUnits="userSpaceOnUse">
<stop stop-color="#28C625"/>
<stop offset="1" stop-color="#D2F5FF"/>
</linearGradient>
</defs>
</svg>
