<svg width="669" height="638" viewBox="0 0 669 638" fill="none" xmlns="http://www.w3.org/2000/svg">
<path d="M784.205 49.1951L324.519 -21.638M784.205 49.1951L232.872 25.0771M784.205 49.1951L209.254 104.867M784.205 49.1951L94.1296 278.723M784.205 49.1951L165.283 188.167M784.205 49.1951L340.39 65.6056M784.205 49.1951L490.826 193.85M784.205 49.1951L8.02334 506.232M784.205 49.1951L317.37 387.946M784.205 49.1951L267.085 556.17M784.205 49.1951L647.985 269.065M784.205 49.1951L452.292 629.942M784.205 49.1951L549.513 374.605M784.205 49.1951L571.334 287.053" stroke="url(#paint0_linear_612_100)" stroke-opacity="0.75" stroke-width="3"/>
<defs>
<linearGradient id="paint0_linear_612_100" x1="784.188" y1="50.1611" x2="305.052" y2="41.7977" gradientUnits="userSpaceOnUse">
<stop stop-color="#28C625"/>
<stop offset="1" stop-color="#D2F5FF"/>
</linearGradient>
</defs>
</svg>
