<svg width="437" height="133" viewBox="0 0 437 133" fill="none" xmlns="http://www.w3.org/2000/svg">
<path d="M-206.526 -142.369L12.8189 107.832M-206.526 -142.369L84.5248 124.375M-206.526 -142.369L134.159 91.5086M-206.526 -142.369L277.196 49.1714M-206.526 -142.369L196.56 66.0783M-206.526 -142.369L44.2399 52.7233M-206.526 -142.369L20.7702 -86.7339M-206.526 -142.369L429.002 -35.9125M-206.526 -142.369L205.081 -113.34M-206.526 -142.369L309.995 -182.407M-206.526 -142.369L-30.769 -200.222M-206.526 -142.369L242.421 -308.002M-206.526 -142.369L71.7271 -212.778M-206.526 -142.369L19.509 -174.832" stroke="url(#paint0_linear_652_390)" stroke-opacity="0.75" stroke-width="3"/>
<defs>
<linearGradient id="paint0_linear_652_390" x1="-206.072" y1="-142.89" x2="52.6574" y2="82.02" gradientUnits="userSpaceOnUse">
<stop stop-color="#28C625"/>
<stop offset="1" stop-color="#D2F5FF"/>
</linearGradient>
</defs>
</svg>
