<svg fill="none" version="1.1" viewBox="0 0 576 64" xmlns="http://www.w3.org/2000/svg">
		<g clip-path="url(#clip0_639_254)">
				<path d="m32.474 1.423c-0.1519-0.45585-0.7967-0.45585-0.9486-1e-5l-7.4117 22.235c-0.0681 0.2042-0.2592 0.3419-0.4744 0.3419h-22.214c-0.47264 0-0.68142 0.5952-0.31235 0.8904l18.615 14.892c0.1635 0.1309 0.2282 0.3498 0.162 0.5486l-7.3544 22.063c-0.1576 0.4727 0.3976 0.8598 0.7867 0.5485l18.366-14.692c0.1826-0.1461 0.442-0.1461 0.6246 0l18.366 14.692c0.3891 0.3113 0.9443-0.0758 0.7867-0.5485l-7.3543-22.063c-0.0663-0.1988-0.0016-0.4177 0.1619-0.5486l18.615-14.892c0.369-0.2952 0.1603-0.8904-0.3124-0.8904h-22.214c-0.2152 0-0.4063-0.1377-0.4744-0.3419l-7.4117-22.235z" stroke="#A7612F" stroke-width="2"/>
		</g>
		<g clip-path="url(#clip1_639_254)">
				<path d="m160.47 1.423c-0.152-0.45585-0.796-0.45585-0.948-1e-5l-7.412 22.235c-0.068 0.2042-0.259 0.3419-0.474 0.3419h-22.215c-0.472 0-0.681 0.5952-0.312 0.8904l18.615 14.892c0.163 0.1309 0.228 0.3498 0.162 0.5486l-7.355 22.063c-0.157 0.4727 0.398 0.8598 0.787 0.5485l18.366-14.692c0.182-0.1461 0.442-0.1461 0.624 0l18.366 14.692c0.389 0.3113 0.944-0.0758 0.787-0.5485l-7.355-22.063c-0.066-0.1988-1e-3 -0.4177 0.162-0.5486l18.615-14.892c0.369-0.2952 0.16-0.8904-0.312-0.8904h-22.215c-0.215 0-0.406-0.1377-0.474-0.3419l-7.412-22.235z" stroke="#A7612F" stroke-width="2"/>
		</g>
		<g clip-path="url(#clip2_639_254)">
				<path d="m288.47 1.423c-0.152-0.45585-0.796-0.45585-0.948-1e-5l-7.412 22.235c-0.068 0.2042-0.259 0.3419-0.474 0.3419h-22.215c-0.472 0-0.681 0.5952-0.312 0.8904l18.615 14.892c0.163 0.1309 0.228 0.3498 0.162 0.5486l-7.355 22.063c-0.157 0.4727 0.398 0.8598 0.787 0.5485l18.366-14.692c0.182-0.1461 0.442-0.1461 0.624 0l18.366 14.692c0.389 0.3113 0.944-0.0758 0.787-0.5485l-7.355-22.063c-0.066-0.1988-1e-3 -0.4177 0.162-0.5486l18.615-14.892c0.369-0.2952 0.16-0.8904-0.312-0.8904h-22.215c-0.215 0-0.406-0.1377-0.474-0.3419l-7.412-22.235z" stroke="#A7612F" stroke-width="2"/>
		</g>
		<g clip-path="url(#clip3_639_254)">
				<path d="m416.47 1.423c-0.152-0.45585-0.796-0.45585-0.948-1e-5l-7.412 22.235c-0.068 0.2042-0.259 0.3419-0.474 0.3419h-22.215c-0.472 0-0.681 0.5952-0.312 0.8904l18.615 14.892c0.163 0.1309 0.228 0.3498 0.162 0.5486l-7.355 22.063c-0.157 0.4727 0.398 0.8598 0.787 0.5485l18.366-14.692c0.182-0.1461 0.442-0.1461 0.624 0l18.366 14.692c0.389 0.3113 0.944-0.0758 0.787-0.5485l-7.355-22.063c-0.066-0.1988-1e-3 -0.4177 0.162-0.5486l18.615-14.892c0.369-0.2952 0.16-0.8904-0.312-0.8904h-22.215c-0.215 0-0.406-0.1377-0.474-0.3419l-7.412-22.235z" stroke="#A7612F" stroke-width="2"/>
		</g>
		<g clip-path="url(#clip4_639_254)">
				<path d="m544.47 1.423c-0.152-0.45585-0.796-0.45585-0.948-1e-5l-7.412 22.235c-0.068 0.2042-0.259 0.3419-0.474 0.3419h-22.215c-0.472 0-0.681 0.5952-0.312 0.8904l18.615 14.892c0.163 0.1309 0.228 0.3498 0.162 0.5486l-7.355 22.063c-0.157 0.4727 0.398 0.8598 0.787 0.5485l18.366-14.692c0.182-0.1461 0.442-0.1461 0.624 0l18.366 14.692c0.389 0.3113 0.944-0.0758 0.787-0.5485l-7.355-22.063c-0.066-0.1988-1e-3 -0.4177 0.162-0.5486l18.615-14.892c0.369-0.2952 0.16-0.8904-0.312-0.8904h-22.215c-0.215 0-0.406-0.1377-0.474-0.3419l-7.412-22.235z" stroke="#A7612F" stroke-width="2"/>
		</g>
		<defs>
				<clipPath id="clip0_639_254">
						<rect width="64" height="64" fill="white"/>
				</clipPath>
				<clipPath id="clip1_639_254">
						<rect transform="translate(128)" width="64" height="64" fill="white"/>
				</clipPath>
				<clipPath id="clip2_639_254">
						<rect transform="translate(256)" width="64" height="64" fill="white"/>
				</clipPath>
				<clipPath id="clip3_639_254">
						<rect transform="translate(384)" width="64" height="64" fill="white"/>
				</clipPath>
				<clipPath id="clip4_639_254">
						<rect transform="translate(512)" width="64" height="64" fill="white"/>
				</clipPath>
		</defs>
</svg>
